<svg xmlns="http://www.w3.org/2000/svg" width="29.908" height="28.5" viewBox="0 0 29.908 28.5">
  <g id="Icon_feather-shopping-cart" data-name="Icon feather-shopping-cart" transform="translate(-0.5 -0.5)">
    <path id="패스_4" data-name="패스 4" d="M14.537,31.262A1.269,1.269,0,1,1,13.269,30,1.265,1.265,0,0,1,14.537,31.262Z" transform="translate(-1.62 -4.524)" fill="none" stroke="#000" stroke-linecap="round" stroke-linejoin="round" stroke-width="2"/>
    <path id="패스_5" data-name="패스 5" d="M31.037,31.262A1.269,1.269,0,1,1,29.769,30,1.265,1.265,0,0,1,31.037,31.262Z" transform="translate(-4.167 -4.524)" fill="none" stroke="#000" stroke-linecap="round" stroke-linejoin="round" stroke-width="2"/>
    <path id="패스_6" data-name="패스 6" d="M1.5,1.5H6.574l3.4,16.9a2.534,2.534,0,0,0,2.537,2.032h12.33A2.534,2.534,0,0,0,27.378,18.4L29.408,7.81H7.843" transform="translate(0 0)" fill="none" stroke="#000" stroke-linecap="round" stroke-linejoin="round" stroke-width="2"/>
  </g>
</svg>
