<svg xmlns="http://www.w3.org/2000/svg" xmlns:xlink="http://www.w3.org/1999/xlink" width="23.807" height="23.802" viewBox="0 0 23.807 23.802">
  <defs>
    <radialGradient id="radial-gradient" cx="0.018" cy="0.908" r="1.446" gradientTransform="matrix(0.998, -0.052, 0.044, 0.849, -0.001, 0.008)" gradientUnits="objectBoundingBox">
      <stop offset="0" stop-color="#fed576"/>
      <stop offset="0.263" stop-color="#f47133"/>
      <stop offset="0.609" stop-color="#bc3081"/>
      <stop offset="1" stop-color="#4c63d2"/>
    </radialGradient>
    <radialGradient id="radial-gradient-2" cx="0.018" cy="0.908" r="1.446" gradientTransform="matrix(0.999, -0.052, 0.044, 0.849, -0.001, 0.008)" xlink:href="#radial-gradient"/>
  </defs>
  <g id="Symbol" transform="translate(-11.2 -10.3)">
    <g id="그룹_11" data-name="그룹 11" transform="translate(11.2 10.3)">
      <path id="패스_30" data-name="패스 30" d="M15.308,10.924A6.1,6.1,0,0,0,11.824,14.4a8.7,8.7,0,0,0-.552,2.889c-.058,1.268-.073,1.674-.073,4.907s.015,3.639.073,4.907a8.829,8.829,0,0,0,.552,2.889,6.095,6.095,0,0,0,3.484,3.484,8.7,8.7,0,0,0,2.889.552c1.268.058,1.674.073,4.907.073s3.639-.015,4.907-.073a8.829,8.829,0,0,0,2.889-.552,6.095,6.095,0,0,0,3.484-3.484,8.7,8.7,0,0,0,.552-2.889c.058-1.268.073-1.674.073-4.907s-.015-3.639-.073-4.907a8.829,8.829,0,0,0-.552-2.889A6.078,6.078,0,0,0,30.9,10.924a8.7,8.7,0,0,0-2.889-.552c-1.268-.058-1.674-.073-4.907-.073s-3.639.015-4.907.073A8.588,8.588,0,0,0,15.308,10.924Zm12.605,1.587a6.557,6.557,0,0,1,2.211.411,3.938,3.938,0,0,1,2.26,2.26,6.557,6.557,0,0,1,.411,2.211c.058,1.253.068,1.631.068,4.81s-.015,3.557-.068,4.81a6.557,6.557,0,0,1-.411,2.211,3.938,3.938,0,0,1-2.26,2.26,6.557,6.557,0,0,1-2.211.411c-1.253.058-1.631.068-4.81.068s-3.557-.015-4.81-.068a6.557,6.557,0,0,1-2.211-.411,3.938,3.938,0,0,1-2.26-2.26,6.557,6.557,0,0,1-.411-2.211c-.058-1.253-.068-1.631-.068-4.81s.015-3.557.068-4.81a6.557,6.557,0,0,1,.411-2.211,3.938,3.938,0,0,1,2.26-2.26,6.557,6.557,0,0,1,2.211-.411c1.253-.058,1.631-.068,4.81-.068S26.66,12.453,27.913,12.511Z" transform="translate(-11.2 -10.3)" fill="url(#radial-gradient)"/>
      <path id="패스_31" data-name="패스 31" d="M130.9,136.111A6.111,6.111,0,1,0,137.011,130,6.112,6.112,0,0,0,130.9,136.111Zm10.079,0a3.968,3.968,0,1,1-3.968-3.968A3.967,3.967,0,0,1,140.979,136.111Z" transform="translate(-125.108 -124.208)" fill="url(#radial-gradient-2)"/>
      <circle id="타원_8" data-name="타원 8" cx="1.427" cy="1.427" r="1.427" transform="translate(16.834 4.123)" fill="#654c9f"/>
    </g>
  </g>
</svg>
