<svg xmlns="http://www.w3.org/2000/svg" width="29.64" height="20.841" viewBox="0 0 29.64 20.841">
  <path id="Icon_awesome-youtube" data-name="Icon awesome-youtube" d="M30.071,7.761A3.724,3.724,0,0,0,27.45,5.123C25.139,4.5,15.87,4.5,15.87,4.5S6.6,4.5,4.29,5.123A3.724,3.724,0,0,0,1.669,7.761a39.069,39.069,0,0,0-.619,7.181,39.069,39.069,0,0,0,.619,7.181,3.669,3.669,0,0,0,2.621,2.6c2.312.623,11.58.623,11.58.623s9.269,0,11.58-.623a3.669,3.669,0,0,0,2.621-2.6,39.069,39.069,0,0,0,.619-7.181,39.069,39.069,0,0,0-.619-7.181ZM12.839,19.348V10.534l7.747,4.407-7.747,4.407Z" transform="translate(-1.05 -4.5)" fill="red"/>
</svg>
